<?xml version="1.0" standalone="no"?>
<!DOCTYPE svg PUBLIC "-//W3C//DTD SVG 20010904//EN"
 "http://www.w3.org/TR/2001/REC-SVG-20010904/DTD/svg10.dtd">
<svg version="1.0" xmlns="http://www.w3.org/2000/svg"
 width="1465.000000pt" height="1465.000000pt" viewBox="0 0 1465.000000 1465.000000"
 preserveAspectRatio="xMidYMid meet">
<metadata>
Created by potrace 1.11, written by Peter Selinger 2001-2013
</metadata>
<g transform="translate(0.000000,1465.000000) scale(0.100000,-0.100000)"
fill="#000000" stroke="none">
<path d="M6275 14189 c-628 -30 -1240 -218 -1746 -537 -561 -353 -1074 -836
-1421 -1338 -436 -631 -681 -1333 -775 -2219 -26 -244 -26 -1040 0 -1330 66
-741 130 -1120 312 -1866 58 -239 121 -510 140 -604 109 -535 80 -871 -97
-1148 -17 -26 -28 -51 -24 -54 4 -4 28 -6 55 -6 138 2 375 208 563 490 48 72
159 284 206 393 9 20 11 5 11 -76 2 -260 95 -526 280 -805 123 -184 261 -345
572 -665 126 -130 127 -131 133 -101 3 16 6 161 6 321 0 308 8 384 49 464 11
22 32 50 47 61 l27 21 55 -97 c122 -218 235 -368 401 -533 128 -128 226 -205
363 -285 89 -53 240 -115 279 -115 25 0 21 -16 -28 -113 -205 -410 -524 -753
-950 -1023 -238 -151 -460 -263 -1073 -539 -628 -283 -996 -509 -1287 -789
-411 -395 -659 -893 -783 -1568 -11 -62 -20 -116 -20 -120 0 -4 2612 -8 5805
-8 4637 0 5805 3 5805 13 0 26 -72 367 -97 457 -75 276 -214 594 -353 805
-202 307 -468 569 -800 789 -259 172 -437 269 -940 511 -637 307 -862 428
-1098 592 -379 264 -665 586 -854 958 -89 177 -88 167 -30 187 149 53 475 305
687 531 136 146 197 223 307 387 146 219 254 464 296 672 l18 90 26 -59 c91
-202 88 -623 -8 -1231 -14 -90 -23 -166 -20 -169 7 -7 238 462 321 652 140
320 241 599 297 823 29 115 32 141 33 285 l0 158 35 -6 c125 -21 290 -153 368
-295 69 -123 129 -338 144 -515 2 -16 8 -30 13 -30 17 0 93 163 130 277 65
199 79 310 79 593 0 333 -26 517 -140 1005 -30 129 -69 298 -86 375 l-31 140
-2 850 c-1 835 -5 953 -40 1420 -88 1147 -332 1981 -720 2454 -263 323 -722
616 -1231 786 -405 136 -794 163 -1003 70 l-58 -27 -79 79 c-258 256 -787 463
-1374 537 -105 14 -493 39 -525 34 -5 0 -82 -5 -170 -9z"/>
</g>
</svg>
